<?xml version="1.0" encoding="UTF-8"?>
<svg version="1.1" viewBox="0 0 1600 1600" width="1280" height="1280" xmlns="http://www.w3.org/2000/svg">
<path transform="translate(716)" d="m0 0h156v3c0.84-0.00786 0.84-0.00786 1.7-0.0159 2.54-0.0208 5.08-0.0338 7.62-0.0466 1.32-0.0126 1.32-0.0126 2.67-0.0254 0.848-0.00322 1.7-0.00645 2.57-0.00977 1.17-0.00786 1.17-0.00786 2.36-0.0159 2.08 0.114 2.08 0.114 5.08 1.11v2c1.22-0.0116 2.44-0.0232 3.69-0.0352 1.62-0.00939 3.25-0.0185 4.87-0.0273 1.2-0.0126 1.2-0.0126 2.42-0.0254 4.79-0.0195 9.3 0.284 14 1.09v2c1.28-0.0206 2.56-0.0412 3.88-0.0625 5.09-0.00809 10.1 0.472 15.1 1.06v2c5.94 0.33 11.9 0.66 18 1v2c5.28 0.33 10.6 0.66 16 1v2c4.29 0.33 8.58 0.66 13 1v2c3.96 0.33 7.92 0.66 12 1v3h12v3h13v3l1.86-0.0352c0.808-0.00902 1.62-0.018 2.45-0.0273 1.2-0.0174 1.2-0.0174 2.43-0.0352 2.26 0.0977 2.26 0.0977 5.26 1.1v2c4.95 0.495 4.95 0.495 10 1v2c1.98 0.33 3.96 0.66 6 1v2c3.96 0.33 7.92 0.66 12 1v3h7v3h9v3h6v3c1.09-0.0206 2.19-0.0412 3.31-0.0625 3.69 0.0625 3.69 0.0625 6.69 1.06v2c1.98 0.33 3.96 0.66 6 1v2c0.638 0.049 1.28 0.098 1.93 0.148 0.826 0.0748 1.65 0.15 2.5 0.227l2.5 0.211c0.682 0.137 1.36 0.273 2.07 0.414 0.33 0.66 0.66 1.32 1 2 0.825 0.165 1.65 0.33 2.5 0.5 0.825 0.165 1.65 0.33 2.5 0.5 0.33 0.66 0.66 1.32 1 2 3.03 0.658 3.03 0.658 6 1v2c3.46 0.495 3.46 0.495 7 1v2c2.64 0.33 5.28 0.66 8 1v3h7v3h6v3h6v3c3.46 0.495 3.46 0.495 7 1v2c1.98 0.33 3.96 0.66 6 1v3h6v3h6v3h6v3h4v3h6v3h3v3c0.969 0.124 1.94 0.248 2.94 0.375 1.01 0.206 2.02 0.412 3.06 0.625 0.33 0.66 0.66 1.32 1 2 2.53 0.656 2.53 0.656 5 1v3h4v3h5c0.33 0.66 0.66 1.32 1 2 0.99 0.33 1.98 0.66 3 1v3h6v3c1.98 0.33 3.96 0.66 6 1v2c1.32 0.33 2.64 0.66 4 1v2c1.98 0.33 3.96 0.66 6 1v3h3v2c1.98 0.33 3.96 0.66 6 1v3h4v3h5v3h4v3h3v3h3v3c1.98 0.33 3.96 0.66 6 1v3h3v3h3v3h4v3h6v3h3v3h3v3h3v3c1.98 0.33 3.96 0.66 6 1v3h3v3h4v3h3v3h3v3h3v3h3v3c1.32 0.33 2.64 0.66 4 1v2c0.99 0.33 1.98 0.66 3 1v2c0.99 0.33 1.98 0.66 3 1v2c0.99 0.33 1.98 0.66 3 1v2c0.99 0.33 1.98 0.66 3 1v2c1.98 0.33 3.96 0.66 6 1v3h3c0.33 0.99 0.66 1.98 1 3 0.66 0.33 1.32 0.66 2 1v3h3v3h3c1.35 1.65 2.69 3.32 4 5 0.99 0.33 1.98 0.66 3 1v3h3v3h3v3h3c0.33 1.98 0.66 3.96 1 6 0.99 0.33 1.98 0.66 3 1v2c0.99 0.33 1.98 0.66 3 1v2c0.99 0.33 1.98 0.66 3 1v3h3v3h3v3h3v3h3v6h3v3h3c0.33 0.99 0.66 1.98 1 3 1.63 1.37 3.3 2.71 5 4 1.81 1.56 1.81 1.56 3 3v3h3c0.33 1.98 0.66 3.96 1 6h3v3h3v4h3v3h3v6h3v3h3c0.33 1.98 0.66 3.96 1 6h3v3c0.99 0.33 1.98 0.66 3 1v5h3v4h3c0.33 1.65 0.66 3.3 1 5h2v4h3c0.33 0.99 0.66 1.98 1 3 0.66 0.33 1.32 0.66 2 1 0.625 2.56 0.625 2.56 1 5h2c0.412 1.22 0.825 2.43 1.25 3.69 1.37 3.7 3.23 6.27 5.75 9.31v3h2c4 6.75 4 6.75 4 9h2c0.42 0.874 0.42 0.874 0.848 1.77 3.97 8.11 8.13 16.2 13.6 23.5 3.12 4.31 5.25 9.01 7.46 13.8 0.874 1.87 1.75 3.75 2.62 5.62 0.636 1.36 0.636 1.36 1.29 2.75 1.63 3.45 3.35 6.85 5.09 10.3 2.25 4.45 4.19 8.9 5.96 13.6 1.55 3.7 3.35 7.25 5.16 10.8 10.3 20.3 10.3 20.3 12 30.9h2c0.371 1.16 0.743 2.31 1.12 3.5 1.51 4.55 3.18 9.02 4.88 13.5 2.13 5.63 4.16 11.3 6 17 0.539 1.67 1.08 3.33 1.62 5 0.24 0.742 0.48 1.48 0.727 2.25 0.51 1.75 0.51 1.75 1.65 2.75 0.324 1.35 0.609 2.7 0.875 4.06 0.786 3.69 1.89 7.07 3.27 10.6 2.79 7.69 4.8 15.6 6.3 23.7 1.68 8.15 3.97 16.2 6.74 24 1.81 5.22 2.57 10.2 2.81 15.7h2c0.33 3.96 0.66 7.92 1 12h2c0.049 0.759 0.098 1.52 0.148 2.3 0.0748 0.994 0.15 1.99 0.227 3.01 0.104 1.48 0.104 1.48 0.211 2.99 0.253 2.91 0.253 2.91 2.41 5.7 0.344 2.34 0.344 2.34 0.5 4.94 0.205 3.61 0.205 3.61 1.46 6.93 1.46 3.01 1.69 5.94 2.1 9.25 0.452 4.59 0.452 4.59 1.94 8.88 0.196 1.5 0.344 3 0.465 4.51 0.078 0.905 0.156 1.81 0.236 2.74 0.156 1.89 0.309 3.79 0.461 5.68 0.484 5.57 1.41 10.7 2.84 16.1 0.217 1.79 0.389 3.58 0.5 5.38 0.213 3.45 0.726 6.64 1.5 10 1.59 7.7 1.41 15.6 1.53 23.4 0.034 2.04 0.079 4.07 0.125 6.11 0.0187 1.2 0.0374 2.4 0.0566 3.63 0.165 3.5 0.165 3.5 1.29 6.78 0.99 3.67 1.25 6.67 1.26 10.5 0.00946 1.95 0.00946 1.95 0.0191 3.94-0.00358 1.4-0.00768 2.81-0.0123 4.21 0.00135 1.46 0.00329 2.91 0.0058 4.37 0.00294 3.04-0.0013 6.08-0.0107 9.12-0.0114 3.89-0.00482 7.77 0.00714 11.7 0.00725 3 0.00492 6-2.56e-4 9.01-0.00133 1.43 2.83e-4 2.86 0.00496 4.3 0.00511 2-0.00407 4.01-0.0138 6.01-0.00239 1.71-0.00239 1.71-0.00482 3.45-0.268 3.35-1.12 6.03-2.25 9.18-0.329 3.15-0.329 3.15-0.344 6.43-0.0296 1.21-0.0593 2.42-0.0898 3.66-0.0329 1.87-0.0329 1.87-0.0664 3.79-0.245 13.9-0.245 13.9-1.47 18.3-1.33 4.9-1.66 9.69-2.03 14.7-0.456 6.15-1.13 12-2.57 18-0.656 3.18-0.676 6.34-0.741 9.58-0.264 6.9-1.7 13-3.87 19.6-1.14 3.47-1.97 6.67-2.35 10.3-0.469 3.62-0.469 3.62-2.47 5.62-0.388 2.56-0.388 2.56-0.5 5.44-0.206 3.86-0.303 5.27-2.5 8.56-0.385 2.87-0.385 2.87-0.5 6-0.278 5.67-0.278 5.67-2.5 9-0.53 2.1-0.53 2.1-0.875 4.44-0.73 3.99-1.78 7.68-3.12 11.5-1.66 4.79-2.75 9.45-3.56 14.4-0.55 3.28-1.3 6.5-2.07 9.74-0.463 2.05-0.463 2.05-0.367 4.88h-2c-0.33 4.95-0.66 9.9-1 15h-3v7h-2c-0.33 2.97-0.66 5.94-1 9h-3v10h-3v9h-3c-0.33 2.97-0.66 5.94-1 9h-2c-0.33 2.31-0.66 4.62-1 7h-2l-0.375 3.94c-0.211 2.21-0.211 2.21-0.625 4.06-0.66 0.33-1.32 0.66-2 1-0.658 3.03-0.658 3.03-1 6h-2c-0.33 2.97-0.66 5.94-1 9h-3v7h-3v6h-3v6h-3v6c-0.99 0.33-1.98 0.66-3 1l-0.375 3.94c-0.211 2.21-0.211 2.21-0.625 4.06-0.66 0.33-1.32 0.66-2 1-0.658 3.03-0.658 3.03-1 6h-3v6h-3v6h-3v6h-3v7h-3c-0.33 1.98-0.66 3.96-1 6h-2c-0.186 1.45-0.186 1.45-0.375 2.94-0.309 1.52-0.309 1.52-0.625 3.06-0.66 0.33-1.32 0.66-2 1-0.33 0.99-0.66 1.98-1 3h-2c-0.33 1.98-0.66 3.96-1 6h-3v6h-3v4h-3v5h-3v4h-3v6h-3v3h-3c-0.33 1.98-0.66 3.96-1 6h-2c-0.33 1.98-0.66 3.96-1 6h-3v4h-2c-0.33 1.98-0.66 3.96-1 6h-3v3h-3v6h-3v3h-3c-0.33 1.32-0.66 2.64-1 4h-2c-0.186 1.21-0.186 1.21-0.375 2.44-0.309 1.27-0.309 1.27-0.625 2.56-0.66 0.33-1.32 0.66-2 1-0.33 0.99-0.66 1.98-1 3h-3v6h-3v3h-3v4h-3v3h-3c-0.33 1.65-0.66 3.3-1 5h-2c-0.33 1.32-0.66 2.64-1 4h-2v3h-4v3c-0.66 0.33-1.32 0.66-2 1-0.656 2.53-0.656 2.53-1 5h-3v3h-3v3h-3v4h-3v3h-3v3h-4v3c-2.31 2-2.31 2-5 4-2.38 2.12-2.96 2.87-4 6h-3v5h-3v4h-3v3h-3v3h-4v3c-1.64 1.37-3.31 2.69-5 4-1.35 1.66-2.68 3.32-4 5-0.66 0.33-1.32 0.66-2 1-0.33 0.99-0.66 1.98-1 3h-3v3h-3v3h-4v3h-3v3c-1.65 0.33-3.3 0.66-5 1v2c-0.99 0.33-1.98 0.66-3 1-0.33 0.66-0.66 1.32-1 2h-3v3h-3v4h-3v3h-3v3h-4v3h-5c-0.33 1.32-0.66 2.64-1 4h-2c-0.33 0.99-0.66 1.98-1 3-0.701 0.248-1.4 0.495-2.12 0.75-2.85 1.24-3.87 2.11-5.94 4.31-3.95 4.15-8.43 7.39-13.1 10.7-2.92 2.14-2.92 2.14-5.36 4.8-2.7 2.6-5.15 3.79-8.51 5.41-2.31 1.57-4.5 3.27-6.69 5-0.568 0.438-1.14 0.877-1.72 1.33-3.2 2.49-3.2 2.49-6.11 5.3-2.19 2.04-4.8 3.05-7.48 4.38-2.53 1.58-4.98 3.26-7.44 4.94-3.71 2.53-7.4 5.01-11.3 7.2-2.57 1.48-4.5 2.78-6.61 4.8-3.26 2.92-6.72 4.91-10.6 6.89-2.04 1.06-2.04 1.06-3.41 2.63-2.25 2.16-4.8 3.16-7.61 4.54-1.69 0.985-3.37 1.99-5.05 3-0.928 0.559-1.86 1.12-2.81 1.69-1.91 1.16-3.83 2.32-5.73 3.48-5.34 3.2-10.6 5.88-16.4 7.99-2.17 0.769-2.17 0.769-3.99 2.84-0.887 0.289-1.77 0.578-2.69 0.875-2.62 0.889-4.54 1.75-6.88 3.12-3.44 2-3.44 2-5.88 2.94-2.31 0.956-4.06 2-6.12 3.38-5.17 3.31-10.8 5.43-16.4 7.69-8.63 3.5-17 7.33-25.2 11.7-2.56 1.19-5 1.94-7.72 2.66-2.66 0.833-5.16 1.93-7.72 3.03-5.48 2.35-11 4.11-16.8 5.73-2.74 0.721-2.74 0.721-4.62 2.89-1.84 0.563-1.84 0.563-3.94 1-3.05 0.639-4.35 1.19-7.06 3l-3.12 0.438c-4.55 0.66-8.56 2.03-12.9 3.56-6.13 2.16-12.3 3.87-18.6 5.35-2.34 0.416-2.34 0.416-3.41 1.65-2.96 0.541-5.94 0.965-8.92 1.4-2.92 0.568-5.35 1.44-8.08 2.6-1.93 0.483-3.86 0.965-5.8 1.43-6.58 1.37-6.58 1.37-12.2 4.57-2.81 0.284-5.62 0.448-8.43 0.621-2.73 0.142-2.73 0.142-4.57 2.38-3.04 0.414-3.04 0.414-6.62 0.625-1.78 0.112-1.78 0.112-3.6 0.227-0.915 0.049-1.83 0.098-2.77 0.148v2c-0.915 0.049-1.83 0.098-2.77 0.148-1.78 0.112-1.78 0.112-3.6 0.227-1.18 0.0696-2.37 0.139-3.59 0.211-3.14 0.116-3.14 0.116-5.04 2.41-2.5 0.344-2.5 0.344-5.44 0.5-3.86 0.206-5.27 0.303-8.56 2.5-3.32 0.377-6.63 0.506-9.97 0.656-3.21 0.129-3.21 0.129-6.03 2.34-2.51 0.397-4.97 0.699-7.5 0.938-6.68 0.705-13.3 1.58-19.9 2.62-0.822 0.127-1.64 0.254-2.49 0.385-4.16 0.604-4.16 0.604-8.07 2.05-1.79 0.198-3.58 0.345-5.38 0.465-1.07 0.078-2.13 0.156-3.23 0.236-2.26 0.158-4.52 0.311-6.78 0.461-1.07 0.0793-2.13 0.159-3.23 0.24-0.982 0.067-1.96 0.134-2.98 0.203-2.58 0.185-2.58 0.185-4.4 2.39-2.86 0.271-2.86 0.271-6.47 0.309-1.94 0.0377-1.94 0.0377-3.92 0.0762-2.06 0.0288-4.12 0.0528-6.18 0.0715-1.99 0.0216-3.98 0.0617-5.96 0.102-1.19 0.0135-2.38 0.0269-3.61 0.0408-0.943 0.132-1.89 0.264-2.86 0.401-0.66 0.99-1.32 1.98-2 3h-3c-0.33-0.99-0.66-1.98-1-3-3.42-0.25-3.42-0.25-7 0-0.66 0.99-1.32 1.98-2 3-0.99-0.33-1.98-0.66-3-1-0.33-0.66-0.66-1.32-1-2-3.42-0.25-3.42-0.25-7 0-0.66 0.99-1.32 1.98-2 3h-3v-4c-3.43 0.264-3.43 0.264-7 1-0.66 0.99-1.32 1.98-2 3h-3c-0.33-0.99-0.66-1.98-1-3-1.17-0.0198-2.33-0.0396-3.53-0.0601-4.32-0.076-8.64-0.165-13-0.257-1.87-0.0383-3.74-0.0732-5.61-0.104-2.69-0.0456-5.38-0.104-8.06-0.164-0.838-0.0116-1.68-0.0231-2.54-0.035-3.91-0.0995-5.96-0.164-9.29-2.38-2.37-0.18-4.75-0.268-7.12-0.312-8.81-0.32-17.2-1.99-25.8-3.81-6.85-1.45-13.6-2.63-20.6-3.42-2.48-0.457-2.48-0.457-5.48-2.46-2.67-0.251-5.27-0.419-7.94-0.5-4.48-0.137-8.06-0.339-12.1-2.5-2.88-0.359-5.74-0.503-8.64-0.656-0.78-0.113-1.56-0.227-2.36-0.344-0.33-0.66-0.66-1.32-1-2-2.55-0.312-5-0.513-7.56-0.625-0.711-0.0387-1.42-0.0773-2.15-0.117-1.76-0.0945-3.52-0.177-5.28-0.258v-2c-0.626-0.049-1.25-0.098-1.9-0.148-1.23-0.112-1.23-0.112-2.48-0.227-1.22-0.104-1.22-0.104-2.46-0.211-2.16-0.414-2.16-0.414-4.16-2.41-2.37-0.387-2.37-0.387-5-0.5-4.78-0.278-4.78-0.278-7-2.5-1.94-0.527-3.9-0.973-5.88-1.38-4.59-0.993-8.95-2.18-13.4-3.75-3.65-1.28-6.96-2.15-10.8-2.5-3.94-0.375-3.94-0.375-6.94-2.38-2.41-0.383-2.41-0.383-5-0.5-3.67-0.218-4.83-0.389-8-2.5-2.05-0.451-2.05-0.451-4.19-0.625-1.89-0.186-1.89-0.186-3.81-0.375-0.33-0.99-0.66-1.98-1-3-0.949 0.103-1.9 0.206-2.88 0.312-4.47 0.0271-7.68-1.87-11.5-4.02-3.14-1.54-6.26-2.37-9.62-3.29-2.68-0.872-5.34-1.81-8-2.75-0.735-0.26-1.47-0.52-2.23-0.789-14.3-5.12-28.1-11-41.6-18-2.45-1.16-4.49-2-7.14-2.49v-2c-1.86-0.588-1.86-0.588-3.75-1.19-8.71-2.91-17-6.57-25.2-10.8-2.17-1.13-2.17-1.13-5.06-2.02v-2c-1.26-0.289-2.52-0.578-3.81-0.875-3.04-0.698-4.49-1.33-7.19-3.12v-2c-0.704-0.0954-1.41-0.191-2.13-0.289-3.38-0.838-5.78-2.26-8.74-4.09-4.3-2.59-8.45-4.82-13.1-6.62v-2l-2.56-0.75c-3.79-1.38-7-3.18-10.4-5.25l-2.94-1.62-2.06-1.38v-2l-7-2v-2c-0.822-0.373-0.822-0.373-1.66-0.754-2.8-1.49-5.23-3.29-7.78-5.18-3.43-2.56-6.86-4.92-10.6-7.06-1.75-1.02-3.5-2.04-5.25-3.06-1.31-0.76-1.31-0.76-2.64-1.54-2.11-1.4-2.11-1.4-3.11-3.4-1.31-0.806-2.67-1.55-4.04-2.26-4.71-2.55-9.05-5.43-13.4-8.55-1.1-0.787-1.1-0.787-2.23-1.59-7.9-5.67-15.1-11.1-21.3-18.6-3.24-2.78-6.63-5.38-10-8-2.05-1.62-4.09-3.24-6.12-4.88l-2.82-2.24-2.05-1.88v-2c-0.722-0.248-1.44-0.495-2.19-0.75-3.92-1.74-6.8-4.24-9.81-7.25l-2.62-1.44c-1.18-0.773-1.18-0.773-2.38-1.56v-3h-3v-2c-0.99-0.33-1.98-0.66-3-1v-2c-1.98-0.33-3.96-0.66-6-1v-3h-3v-3h-3v-4h-3v-3h-3v-3h-3c-0.33-1.65-0.66-3.3-1-5-0.99-0.33-1.98-0.66-3-1v-3h-3v-3h-3v-3h-3v-3h-3v-3h-3c-0.33-0.99-0.66-1.98-1-3-0.99-0.33-1.98-0.66-3-1v-3h-3v-3h-3v-3h-3v-3h-3v-3h-3l-1-3c-0.66-0.33-1.32-0.66-2-1-0.625-2.56-0.625-2.56-1-5-0.99-0.33-1.98-0.66-3-1v-3h-3v-3h-3v-3h-3v-3h-3v-6h-3v-4h-3v-3h-3l-1-5c-0.99-0.33-1.98-0.66-3-1v-3h-2v-3h-4v-3c-0.99-0.33-1.98-0.66-3-1v-5h-3v-4h-3v-3h-3l-1-6h-2v-3h-3l-1-6h-2l-1-3c-0.773-0.712-0.773-0.712-1.56-1.44-1.44-1.56-1.44-1.56-1.44-5.56h-3v-3h-3v-6h-3v-6h-3v-4h-3l-0.375-2.44-0.625-2.56c-0.66-0.33-1.32-0.66-2-1-0.625-3.06-0.625-3.06-1-6h-2v-3h-3l-1-6c-0.99-0.33-1.98-0.66-3-1v-5h-3v-4h-3v-6h-3v-6h-3v-6h-3l-0.375-2.94-0.625-3.06c-0.66-0.33-1.32-0.66-2-1-0.625-3.06-0.625-3.06-1-6h-2l-1-6h-3v-6h-3v-7h-3v-9h-3v-6h-3l-0.375-2.94-0.625-3.06-2-1c-0.594-2.65-0.742-5.29-1-8h-2l-1-7h-2l-1-9c-0.99-0.33-1.98-0.66-3-1v-6h-3v-9h-3l-0.148-1.93-0.227-2.5c-0.0696-0.824-0.139-1.65-0.211-2.5l-0.414-2.07-2-1c-0.391-2.06-0.507-4.09-0.656-6.19l-0.344-1.81-2-1v-6h-3l-0.148-1.93-0.227-2.5c-0.0696-0.824-0.139-1.65-0.211-2.5l-0.414-2.07-2-1c-0.414-2.07-0.414-2.07-0.625-4.56l-0.227-2.5-0.148-1.93h-2l-1-12h-2c-1-3.01-1.1-5.04-1.06-8.19l0.0273-2.73c0.0174-1.03 0.0174-1.03 0.0352-2.08h-3v-15h-3v-10h-3v-12h-3l-1-16h-2l-1-21h-2c-0.912-7.36-1.11-14.6-1-22h-2c-0.0449-0.65-0.0898-1.3-0.136-1.97-0.213-2.99-0.445-5.98-0.677-8.97-0.105-1.53-0.105-1.53-0.213-3.1-0.375-4.69-0.794-8.89-2.54-13.3-2.35-6.36-1.75-13.1-1.62-19.8 0.0151-1.36 0.0288-2.71 0.041-4.07 0.0351-3.29 0.0843-6.58 0.146-9.87h-2v-113h2l-0.0317-2.14c-0.0416-3.2-0.0676-6.41-0.0933-9.61l-0.0508-3.37-0.0195-3.24-0.0317-2.98c0.236-2.77 0.939-4.24 2.23-6.66 0.401-2.08 0.401-2.08 0.527-4.28 0.0683-0.832 0.137-1.66 0.207-2.52 0.067-0.89 0.134-1.78 0.203-2.7 0.637-7.48 1.45-14.9 2.56-22.3 0.119-0.804 0.237-1.61 0.359-2.44 0.568-3.68 1.24-7.26 2.2-10.9 0.926-3.82 1.3-7.34 1.5-11.3 0.337-6.42 0.337-6.42 1.44-8.62h2c-0.0232-0.987-0.0464-1.97-0.0703-2.99l-0.0547-3.88-0.0703-3.87c0.195-3.26 0.195-3.26 2.2-5.26 0.388-2.6 0.388-2.6 0.5-5.5 0.278-5.28 0.278-5.28 2.5-7.5 0.387-2.04 0.387-2.04 0.5-4.31 0.323-3.62 1.12-6.32 2.5-9.69 0.195-1.39 0.36-2.79 0.5-4.19 0.5-3.81 0.5-3.81 2.5-5.81 0.637-1.93 0.637-1.93 1.06-4.06 0.84-3.84 0.84-3.84 1.94-4.94 0.279-1.54 0.522-3.1 0.75-4.65 1.27-7.27 3.75-14.1 6.25-21 3.57-9.68 3.57-9.68 6.19-19.6 0.812-3.73 0.812-3.73 2.81-5.73 0.465-1.93 0.927-3.86 1.37-5.79 0.649-2.27 1.52-4.13 2.63-6.21 1.69-3.19 2.59-6.2 3.38-9.73 1.75-6.39 4.67-12.5 7.75-18.4 1.97-3.78 3.08-7.66 4.16-11.8 0.711-2.1 0.711-2.1 2.71-4.1 0.701-1.65 1.36-3.32 2-5 0.99-2.18 1.99-4.35 3-6.52 1.1-2.55 1.1-2.55 1.82-5.67 1.49-4.8 3.72-8.97 6.12-13.4 0.885-1.65 1.77-3.29 2.65-4.94 0.418-0.774 0.835-1.55 1.27-2.35 1.43-2.69 2.78-5.42 4.14-8.15 0.675-1.19 1.36-2.38 2.06-3.56 1.93-3.23 1.93-3.23 2.94-6.06 1.22-2.9 3.03-4.92 5-7.38 0.743-1.48 0.743-1.48 1.5-3 1.53-3.07 3.19-5.47 5.5-8h2v-3h2l0.375-2.94 0.625-3.06c0.66-0.33 1.32-0.66 2-1l1-5c0.66-0.33 1.32-0.66 2-1l1-3h3v-6h3v-4h3v-6h3v-5c0.99-0.33 1.98-0.66 3-1v-3h3l1-6h3v-4h2c0.186-1.21 0.186-1.21 0.375-2.44l0.625-2.56c0.66-0.33 1.32-0.66 2-1l1-3h3v-6h3v-3h3l1-6h2v-3h3l1-4h2l1-3h2l1-5h3v-4h3v-3h3v-3h3v-3h3l1-4h2c0.186-1.21 0.186-1.21 0.375-2.44l0.625-2.56c0.66-0.33 1.32-0.66 2-1l1-3h3v-3h3v-4h2l1-5h3v-3h3l1-4h2c0.33-0.99 0.66-1.98 1-3h2v-3h3v-3h4v-3h3v-3h3v-3h3v-3h3v-3h3c0.33-1.32 0.66-2.64 1-4h2c0.33-0.99 0.66-1.98 1-3h3v-3h3v-3h3v-3h3v-3h3v-4h3v-3h3v-3h3v-3h3v-3h4v-3h3v-3c1.98-0.33 3.96-0.66 6-1v-2h3v-3c0.99-0.33 1.98-0.66 3-1 0.742-0.773 0.742-0.773 1.5-1.56 1.5-1.44 1.5-1.44 4.5-1.44l1-3h3v-3h3v-3h3v-3h3v-3c0.99-0.33 1.98-0.66 3-1l1-2c2.56-0.625 2.56-0.625 5-1l1-3h2l1-3h3v-3h3v-3h3v-3h6v-3c1.98-0.33 3.96-0.66 6-1v-2c0.99-0.33 1.98-0.66 3-1l1-2h3v-3c0.804-0.124 1.61-0.248 2.44-0.375l2.56-0.625 1-2h3v-3c1.98-0.33 3.96-0.66 6-1v-3h4v-3h6v-3h6v-3h3v-3h6v-3c1.98-0.33 3.96-0.66 6-1v-2l3-1 1-2c3.06-0.625 3.06-0.625 6-1v-3h6v-3h4v-3h6v-3c0.804-0.124 1.61-0.248 2.44-0.375l2.56-0.625 1-2h3v-3h6v-3c1.98-0.33 3.96-0.66 6-1v-2c3.47-0.495 3.47-0.495 7-1v-3h6v-3h9v-3h6v-3h7v-3h6v-3c1.45-0.186 1.45-0.186 2.94-0.375 1.01-0.206 2.02-0.412 3.06-0.625 0.33-0.66 0.66-1.32 1-2 2.07-0.414 2.07-0.414 4.56-0.625l2.5-0.227c0.638-0.049 1.28-0.098 1.93-0.148v-2c2.97-0.33 5.94-0.66 9-1v-3h7v-3h8v-3c3.3-0.33 6.6-0.66 10-1v-2c1.45-0.186 1.45-0.186 2.94-0.375 1.01-0.206 2.02-0.412 3.06-0.625 0.33-0.66 0.66-1.32 1-2 2.65-0.594 5.29-0.742 8-1v-2c2.31-0.33 4.62-0.66 7-1v-2c3.3-0.33 6.6-0.66 10-1v-2c5.05-1.04 9.87-1.1 15-1v-2c2.88-0.961 4.7-1.11 7.69-1.06 1.21 0.0135 1.21 0.0135 2.45 0.0273 0.615 0.0116 1.23 0.0232 1.86 0.0352v-3h9v-3h10v-3c0.855-0.049 1.71-0.098 2.59-0.148 1.1-0.0748 2.21-0.15 3.35-0.227 1.1-0.0696 2.2-0.139 3.34-0.211 0.898-0.137 1.8-0.273 2.72-0.414 0.33-0.66 0.66-1.32 1-2 2.55-0.312 5-0.513 7.56-0.625 0.711-0.0387 1.42-0.0773 2.15-0.117 1.76-0.0945 3.52-0.177 5.28-0.258v-2c7.92-0.495 7.92-0.495 16-1v-2c6.27-0.33 12.5-0.66 19-1v-2c8.34-1.19 16.6-1.09 25-1v-2c5.33-1.11 10.5-1.12 15.9-1.06 0.879 0.00451 1.76 0.00902 2.66 0.0137 2.15 0.0117 4.31 0.0296 6.46 0.0488v-3zm-642 457 1 2zm-50 140 1 3zm-16 82 1 3z" fill="#FBFCFE"/>
<path transform="translate(716)" d="m0 0h156v3c0.84-0.00786 0.84-0.00786 1.7-0.0159 2.54-0.0208 5.08-0.0338 7.62-0.0466 1.32-0.0126 1.32-0.0126 2.67-0.0254 0.848-0.00322 1.7-0.00645 2.57-0.00977 1.17-0.00786 1.17-0.00786 2.36-0.0159 2.08 0.114 2.08 0.114 5.08 1.11v2c1.22-0.0116 2.44-0.0232 3.69-0.0352 1.62-0.00939 3.25-0.0185 4.87-0.0273 1.2-0.0126 1.2-0.0126 2.42-0.0254 4.79-0.0195 9.3 0.284 14 1.09v2c1.28-0.0206 2.56-0.0412 3.88-0.0625 5.09-0.00809 10.1 0.472 15.1 1.06v2c5.94 0.33 11.9 0.66 18 1v2c5.28 0.33 10.6 0.66 16 1v2c4.29 0.33 8.58 0.66 13 1v2c3.96 0.33 7.92 0.66 12 1v3h12v3h13v3l1.86-0.0352c0.808-0.00902 1.62-0.018 2.45-0.0273 1.2-0.0174 1.2-0.0174 2.43-0.0352 2.26 0.0977 2.26 0.0977 5.26 1.1v2c3.3 0.33 6.6 0.66 10 1v2c1.98 0.33 3.96 0.66 6 1v2c3.96 0.33 7.92 0.66 12 1v3h7v3h9v3h6v3c1.09-0.0206 2.19-0.0412 3.31-0.0625 3.69 0.0625 3.69 0.0625 6.69 1.06v2c1.98 0.33 3.96 0.66 6 1v2c0.638 0.049 1.28 0.098 1.93 0.148 0.826 0.0748 1.65 0.15 2.5 0.227l2.5 0.211c0.682 0.137 1.36 0.273 2.07 0.414 0.33 0.66 0.66 1.32 1 2 0.825 0.165 1.65 0.33 2.5 0.5 0.825 0.165 1.65 0.33 2.5 0.5 0.33 0.66 0.66 1.32 1 2 3.03 0.658 3.03 0.658 6 1v2c2.31 0.33 4.62 0.66 7 1v2c2.64 0.33 5.28 0.66 8 1v3h7v3h6v3h6v3c3.46 0.495 3.46 0.495 7 1v2c1.98 0.33 3.96 0.66 6 1v3h6v3h6v3h6v3h4v3h6v3h3v3c0.969 0.124 1.94 0.248 2.94 0.375 1.01 0.206 2.02 0.412 3.06 0.625 0.33 0.66 0.66 1.32 1 2 2.53 0.656 2.53 0.656 5 1v3h4v3h5c0.33 0.66 0.66 1.32 1 2 0.99 0.33 1.98 0.66 3 1v3h6v3c1.98 0.33 3.96 0.66 6 1v2c1.32 0.33 2.64 0.66 4 1v2c1.98 0.33 3.96 0.66 6 1v3h3v2c1.98 0.33 3.96 0.66 6 1v3h4v3h5v3h4v3h3v3h3v3c1.98 0.33 3.96 0.66 6 1v3h3v3h3v3h4v3h6v3h3v3h3v3h3v3c1.98 0.33 3.96 0.66 6 1v3h3v3h4v3h3v3h3v3h3v3h3v3c1.32 0.33 2.64 0.66 4 1v2c0.99 0.33 1.98 0.66 3 1v2c0.99 0.33 1.98 0.66 3 1v2c0.99 0.33 1.98 0.66 3 1v2c0.99 0.33 1.98 0.66 3 1v2c1.98 0.33 3.96 0.66 6 1v3h3c0.33 0.99 0.66 1.98 1 3 0.66 0.33 1.32 0.66 2 1v3h3v3h3c1.35 1.65 2.69 3.32 4 5 0.99 0.33 1.98 0.66 3 1v3h3v3h3v3h3c0.33 1.98 0.66 3.96 1 6 0.99 0.33 1.98 0.66 3 1v2c0.99 0.33 1.98 0.66 3 1v2c0.99 0.33 1.98 0.66 3 1v3h3v3h3v3h3v3h3v6h3v3h3c0.33 0.99 0.66 1.98 1 3 1.63 1.37 3.3 2.71 5 4 1.81 1.56 1.81 1.56 3 3v3h3c0.33 1.98 0.66 3.96 1 6h3v3h3v4h3v3h3v6h3v3h3c0.33 1.98 0.66 3.96 1 6h3v3c0.99 0.33 1.98 0.66 3 1v5h3v4h3c0.33 1.65 0.66 3.3 1 5h2v4h3c0.33 0.99 0.66 1.98 1 3 0.66 0.33 1.32 0.66 2 1 0.625 2.56 0.625 2.56 1 5h2c0.33 1.65 0.66 3.3 1 5-0.86-0.254-1.72-0.508-2.61-0.77-6.99-2.03-13.9-3.89-21.1-5.42-2.74-0.665-5.33-1.46-8-2.33-5.57-1.7-11-2.21-16.8-2.61-1.95-0.145-3.9-0.293-5.84-0.445-0.848-0.0595-1.7-0.119-2.57-0.18-2.09-0.25-2.09-0.25-4.09-1.25-1.49-0.129-2.99-0.202-4.49-0.246l-2.84-0.0996c-1.92-0.0589-3.83-0.116-5.75-0.172-4.78-0.17-9.52-0.416-14.3-0.942-14.3-1.58-28.6-1.88-43-1.95-2.46-0.0188-4.92-0.0383-7.38-0.0587-6.4-0.0508-12.8-0.0907-19.2-0.128-6.56-0.0404-13.1-0.0913-19.7-0.141-12.8-0.0961-25.6-0.181-38.4-0.258v2c-1.02 0.0553-2.04 0.111-3.1 0.168-3.86 0.209-7.71 0.42-11.6 0.632-1.66 0.0907-3.31 0.181-4.97 0.271-9.8 0.53-19.6 1.12-29.4 1.93v2c-2.64-0.33-5.28-0.66-8-1v2c-3.46 1.07-6.64 1.1-10.2 1.06-1.08-0.00902-2.16-0.018-3.27-0.0273-0.82-0.0116-1.64-0.0232-2.48-0.0352v2c-1.2 0.11-2.41 0.219-3.65 0.332-1.58 0.159-3.15 0.32-4.73 0.48-0.794 0.0703-1.59 0.141-2.41 0.213-2.09 0.221-4.16 0.59-6.22 0.975-0.66 0.99-1.32 1.98-2 3l-1.69-0.5c-2.5-0.54-4.76-0.571-7.31-0.5v2c-1.65 0.167-3.29 0.334-4.94 0.5-0.917 0.0928-1.83 0.186-2.78 0.281-2.29 0.219-2.29 0.219-3.29 0.219l-2.26 0.473c-2.57 0.494-5.05 0.768-7.66 0.957-13.9 1.07-25.4 3.31-38.3 8.58-2.75 0.988-2.75 0.988-5.75 0.988-0.33 0.66-0.66 1.32-1 2 1.32 0.33 2.64 0.66 4 1-1 1-1 1-3.94 1.12-3.06-0.125-3.06-0.125-5.06-1.12v2h-7c-0.33 0.99-0.66 1.98-1 3-4.29 0.33-8.58 0.66-13 1-0.33 1.32-0.66 2.64-1 4-1.24 0.103-2.47 0.206-3.75 0.312-2.56 0.213-3.91 0.422-5.95 2.02-4.08 2.97-9.01 4.3-13.7 5.98-4.46 1.65-7.34 3.07-10.6 6.69-1.94 1.09-1.94 1.09-4 1.94-0.782 0.329-1.56 0.657-2.37 0.996-1.3 0.528-1.3 0.528-2.63 1.07-2.02 0.831-4.04 1.66-6.06 2.5-0.94 0.382-1.88 0.763-2.85 1.16-3.77 1.64-7.42 3.48-11.1 5.34-1.72 0.851-1.72 0.851-3.47 1.72-8.24 4.09-16.4 8.28-24.6 12.5-0.975 0.507-1.95 1.01-2.96 1.54-4.03 2.11-8.05 4.22-12 6.5-3 1.71-3 1.71-5.87 2.84-2.3 0.674-2.3 0.674-3.12 2.88-1.78 0.95-3.6 1.84-5.44 2.69-4.99 2.44-9.45 5.13-13.9 8.4-2.45 1.78-4.94 3.47-7.45 5.15-6.56 4.42-12.4 9.35-18.2 14.8-1.29 1.13-2.58 2.26-3.88 3.38-3.92 3.41-7.74 6.92-11.6 10.4-3.16 2.91-6.35 5.78-9.56 8.62-8.76 7.9-16.9 15.7-23.5 25.6-0.503 0.655-1.01 1.31-1.52 1.98h-2c-0.206 0.825-0.413 1.65-0.625 2.5-1.43 3.63-3.11 5.96-5.49 9-11.3 14.9-21 31.3-29.5 48-1.84 3.59-3.72 7.06-5.92 10.4-2.95 4.64-5.21 9.53-7.46 14.5-0.435 0.964-0.871 1.93-1.32 2.92-3.74 8.4-6.89 16.9-9.74 25.6-0.432 1.3-0.864 2.59-1.3 3.89-0.21 0.63-0.42 1.26-0.637 1.91-0.621 1.86-1.24 3.72-1.86 5.59-0.791 2.37-1.57 4.75-2.34 7.13-2.44 7.25-5.43 13.9-9.18 20.5-1.97 3.49-1.97 3.49-3.23 7.28-0.453 1.7-0.453 1.7-3.45 3.7-5.35 0.327-5.35 0.327-8-1-10.7-0.786-20.9 0.582-31.1 4.05-3.65 1.19-7.26 1.68-11.1 2.2-3.08 0.655-3.08 0.655-6.13 2.82-6.19 3.7-13.9 2.41-20.7 0.766-3.47-1.4-4.68-3.6-6.37-6.83-0.933-2.32-1.83-4.65-2.69-7-3.18-6.02-6.84-11.2-11.4-16.2-2.76-3.1-4.89-6.42-6.78-10.1-5.67-11-13.5-20.3-21.9-29.4-2.29-2.66-4.33-5.44-6.39-8.27-2.78-3.78-5.59-7.15-9-10.4-8.24-7.97-14.5-17.5-19.1-28-1.74-3.14-3.82-5.17-6.45-7.62-1.71-1.66-3.42-3.33-5.12-5-0.848-0.825-1.7-1.65-2.57-2.5-5.3-5.75-5.3-5.75-5.3-9.5-0.99-0.33-1.98-0.66-3-1-2.47-2.79-4.72-5.63-6.94-8.62-2.38-2.74-5.05-4.39-8.06-6.38v-2c-0.763-0.248-1.53-0.495-2.31-0.75-2.95-1.37-4.05-2.49-5.69-5.25v-2c-0.557-0.227-1.11-0.454-1.69-0.688-2.31-1.31-2.31-1.31-4.62-3.69-2.19-2.14-3.59-3.24-6.19-4.62-3.43-1.84-5.81-4.17-8.5-7-0.928-0.722-1.86-1.44-2.81-2.19-0.722-0.598-1.44-1.2-2.19-1.81v-2l-1.6-0.668c-3.28-1.82-6.01-4.21-8.84-6.64-0.56-0.474-1.12-0.947-1.7-1.44-2.61-2.22-5.09-4.47-7.51-6.91-2.73-2.71-5.65-4.81-8.79-7.01-0.519-0.44-1.04-0.879-1.57-1.33v-2c-0.837-0.373-0.837-0.373-1.69-0.754-2.71-1.46-4.88-3.21-7.25-5.18l-2.93-2.43c-3.77-3.16-7.52-6.33-11.3-9.52-2.67-2.27-5.36-4.51-8.1-6.7-0.995-0.794-1.99-1.59-3.02-2.41l-2.7-2.12c-2.05-1.88-2.05-1.88-3.05-4.88l-5-2-1-3c-1.79-1.06-1.79-1.06-4-2-5.46-3.1-10.5-6.06-14.5-11-7.74-9.45-20.6-14.3-31.2-19.8-4.17-2.18-8.29-4.45-12.4-6.71-2.04-1.05-4.13-2.02-6.24-2.92-3.85-1.65-7.53-3.51-11.2-5.43-6.97-3.55-14-6.5-21.4-9.12 0.33-1.32 0.66-2.64 1-4-0.639-0.0825-1.28-0.165-1.94-0.25-2.73-0.669-4.64-1.5-7.12-2.75-4.74-2.21-9.06-2.45-14.2-2.73-3.43-0.341-5.71-1.61-8.71-3.27-3.64-1.12-7.31-2.07-11-3v-2l-2.12-0.184c-0.91-0.0838-1.82-0.168-2.76-0.254l-2.74-0.246c-2.38-0.316-2.38-0.316-4.38-1.32-2.3-0.213-4.6-0.37-6.91-0.5-0.681-0.0406-1.36-0.0812-2.06-0.123-2.18-0.13-4.35-0.254-6.53-0.377-2.86-0.162-5.73-0.329-8.59-0.5l-3.87-0.219c-3.04-0.281-3.04-0.281-5.04-1.28-2.68-0.0989-5.32-0.14-8-0.133-0.791-9.57e-4 -1.58-0.00191-2.4-0.0029-1.67-6.81e-4 -3.35 0.00117-5.02 0.00534-2.57 0.00535-5.14 5.21e-5 -7.7-0.00635-1.63 6.61e-4 -3.25 0.00194-4.88 0.00391-1.16-0.00304-1.16-0.00304-2.34-0.00613-3.96-0.0665-3.96-0.0665-7.66 1.14-3.05 0.216-6.08 0.378-9.13 0.5-0.905 0.0406-1.81 0.0812-2.74 0.123-3.88 0.174-7.76 0.338-11.6 0.502-2.83 0.121-5.66 0.248-8.49 0.375-1.33 0.0532-1.33 0.0532-2.68 0.107-3.98-0.202-3.98-0.202-7.31 1.39-1.55 0.203-3.11 0.347-4.66 0.465l-2.9 0.236c-2.02 0.156-4.03 0.309-6.05 0.461-5.39 0.442-10.3 1.12-15.4 2.84 0.66 0.99 1.32 1.98 2 3-2.31 2.67-4.26 3.63-7.62 4.62-2.95 0.735-2.95 0.735-5.38 2.38-1.67 0.0406-3.33 0.0427-5 0v2l-5 2c-0.33-0.33-0.66-0.66-1-1l-1.16 1.87c-2.24 2.6-3.96 3.16-7.21 4.19-3.01 0.967-5.49 1.85-8.18 3.55-2.72 1.54-4.18 1.72-7.26 1.58-0.79-0.0271-1.58-0.0541-2.39-0.082-0.888-0.0522-0.888-0.0522-1.79-0.105v-2h2l0.375-2.94 0.625-3.06c0.66-0.33 1.32-0.66 2-1 0.248-1.24 0.248-1.24 0.5-2.5 0.248-1.24 0.248-1.24 0.5-2.5 0.66-0.33 1.32-0.66 2-1l1-3h3v-6h3v-4h3v-6h3v-5c0.99-0.33 1.98-0.66 3-1v-3h3c0.33-1.98 0.66-3.96 1-6h3v-4h2c0.186-1.21 0.186-1.21 0.375-2.44l0.625-2.56c0.66-0.33 1.32-0.66 2-1 0.33-0.99 0.66-1.98 1-3h3v-6h3v-3h3c0.33-1.98 0.66-3.96 1-6h2v-3h3c0.33-1.32 0.66-2.64 1-4h2c0.33-0.99 0.66-1.98 1-3h2c0.33-1.65 0.66-3.3 1-5h3v-4h3v-3h3v-3h3v-3h3c0.33-1.32 0.66-2.64 1-4h2c0.186-1.21 0.186-1.21 0.375-2.44l0.625-2.56c0.66-0.33 1.32-0.66 2-1 0.33-0.99 0.66-1.98 1-3h3v-3h3v-4h2c0.33-1.65 0.66-3.3 1-5h3v-3h3c0.33-1.32 0.66-2.64 1-4h2c0.33-0.99 0.66-1.98 1-3h2v-3h3v-3h4v-3h3v-3h3v-3h3v-3h3v-3h3c0.33-1.32 0.66-2.64 1-4h2c0.33-0.99 0.66-1.98 1-3h3v-3h3v-3h3v-3h3v-3h3v-4h3v-3h3v-3h3v-3h3v-3h4v-3h3v-3c1.98-0.33 3.96-0.66 6-1v-2h3v-3c0.99-0.33 1.98-0.66 3-1 0.742-0.773 0.742-0.773 1.5-1.56 1.5-1.44 1.5-1.44 4.5-1.44 0.33-0.99 0.66-1.98 1-3h3v-3h3v-3h3v-3h3v-3c0.99-0.33 1.98-0.66 3-1 0.33-0.66 0.66-1.32 1-2 2.56-0.625 2.56-0.625 5-1 0.33-0.99 0.66-1.98 1-3h2c0.33-0.99 0.66-1.98 1-3h3v-3h3v-3h3v-3h6v-3c1.98-0.33 3.96-0.66 6-1v-2c0.99-0.33 1.98-0.66 3-1 0.33-0.66 0.66-1.32 1-2h3v-3c0.804-0.124 1.61-0.248 2.44-0.375 0.846-0.206 1.69-0.412 2.56-0.625 0.33-0.66 0.66-1.32 1-2h3v-3c1.98-0.33 3.96-0.66 6-1v-3h4v-3h6v-3h6v-3h3v-3h6v-3c1.98-0.33 3.96-0.66 6-1v-2l3-1 1-2c3.06-0.625 3.06-0.625 6-1v-3h6v-3h4v-3h6v-3c0.804-0.124 1.61-0.248 2.44-0.375l2.56-0.625 1-2h3v-3h6v-3c1.98-0.33 3.96-0.66 6-1v-2c3.47-0.495 3.47-0.495 7-1v-3h6v-3h9v-3h6v-3h7v-3h6v-3c1.45-0.186 1.45-0.186 2.94-0.375 1.01-0.206 2.02-0.412 3.06-0.625 0.33-0.66 0.66-1.32 1-2 2.07-0.414 2.07-0.414 4.56-0.625l2.5-0.227c0.638-0.049 1.28-0.098 1.93-0.148v-2c2.97-0.33 5.94-0.66 9-1v-3h7v-3h8v-3c4.95-0.495 4.95-0.495 10-1v-2c1.45-0.186 1.45-0.186 2.94-0.375 1.01-0.206 2.02-0.412 3.06-0.625 0.33-0.66 0.66-1.32 1-2 2.65-0.594 5.29-0.742 8-1v-2c3.47-0.495 3.47-0.495 7-1v-2c4.95-0.495 4.95-0.495 10-1v-2c5.05-1.04 9.87-1.1 15-1v-2c2.88-0.961 4.7-1.11 7.69-1.06 1.21 0.0135 1.21 0.0135 2.45 0.0273 0.615 0.0116 1.23 0.0232 1.86 0.0352v-3h9v-3h10v-3c0.855-0.049 1.71-0.098 2.59-0.148 1.1-0.0748 2.21-0.15 3.35-0.227 1.65-0.104 1.65-0.104 3.34-0.211 0.898-0.137 1.8-0.273 2.72-0.414 0.33-0.66 0.66-1.32 1-2 2.55-0.312 5-0.513 7.56-0.625 0.711-0.0387 1.42-0.0773 2.15-0.117 1.76-0.0945 3.52-0.177 5.28-0.258v-2c7.92-0.495 7.92-0.495 16-1v-2c6.27-0.33 12.5-0.66 19-1v-2c8.34-1.19 16.6-1.09 25-1v-2c5.33-1.11 10.5-1.12 15.9-1.06 0.879 0.00451 1.76 0.00902 2.66 0.0137 2.15 0.0117 4.31 0.0296 6.46 0.0488v-3z" fill="#000102"/>
<path transform="translate(756,688)" d="m0 0c2 0.0425 4 0.0408 6 0h3c0.701 0.784 1.4 1.57 2.12 2.38 5.07 4.63 11.2 4.57 17.8 5.22 33.7 3.35 66.3 12.8 88.7 39.5 1.5 1.87 3 3.75 4.49 5.62 1.64 1.95 3.15 3.47 5.14 5.02 3.53 2.91 6.79 6.16 8.81 10.3-0.0352 2.54-0.0352 2.54-1 5-2.12 1.74-2.12 1.74-4.88 3.31-6.97 4.15-13.6 8.74-19.8 13.9-2.3 1.76-2.3 1.76-4.3 1.76-0.251 0.599-0.503 1.2-0.762 1.82-1.4 2.48-2.72 3.51-5.05 5.12-3.45 2.39-6.24 5.08-9.19 8.06-1.4 1.39-2.8 2.78-4.2 4.17-2.16 2.15-4.32 4.3-6.48 6.45-1.13 1.12-2.26 2.25-3.39 3.37-8.55 8.48-8.55 8.48-16.6 17.4-1.99 2.31-4.2 4.41-6.36 6.57-0.557 0.763-1.11 1.53-1.69 2.31-0.433 0.557-0.866 1.11-1.31 1.69h-2c-0.213 0.531-0.425 1.06-0.645 1.61-1.88 3.31-4.44 5.9-7.04 8.64-1.09 1.16-2.18 2.33-3.27 3.49-0.788 0.841-0.788 0.841-1.59 1.7-3.45 3.71-6.75 7.56-10 11.4-3.01 3.54-6.13 6.85-9.42 10.1-1.58 1.87-3.13 3.74-4.67 5.64-0.44 0.447-0.879 0.895-1.33 1.36h-2c-0.25 0.588-0.5 1.18-0.758 1.78-1.41 2.51-2.91 3.89-5.12 5.72-2.3 1.92-4.22 3.62-6.12 5.94-2.53 1.98-4.62 2.18-7.79 2.02-3.4-0.711-6.05-2.37-8.99-4.17-2.07-1.2-3.96-1.98-6.22-2.73-8.82-3.18-14.9-9.32-21.3-15.9-2.9-2.87-5.93-5.23-9.3-7.51-0.45-0.37-0.9-0.74-1.36-1.12v-2c-0.705-0.237-1.41-0.474-2.14-0.719-3.37-1.51-5.83-3.44-8.68-5.78-0.976-0.794-1.95-1.59-2.96-2.41-0.736-0.691-1.47-1.38-2.23-2.09v-2c-1.02-0.34-1.02-0.34-2.06-0.688-3.64-1.62-6.97-3.64-9.94-6.31v-2h-2v-2c-0.523-0.228-1.05-0.456-1.59-0.691-3.26-1.77-6.12-3.99-9.04-6.25-0.585-0.443-1.17-0.886-1.77-1.34-2.73-2.1-4.67-3.83-6.6-6.72-1.68-0.97-1.68-0.97-3.62-1.75-3.99-1.9-6.92-4.28-10.2-7.25-3.44-3.11-7.07-6-10.7-8.93-1.94-1.58-3.84-3.18-5.72-4.82-2.17-1.74-4.2-3.14-6.56-4.56-4.21-2.55-7.92-5.58-11.7-8.7-3.08-2.42-6.29-4.51-9.62-6.57-2.15-1.6-3.49-3.15-4.91-5.42-0.199-4.37 1.34-6.72 4.06-9.94 3.1-3.34 6.42-6.34 9.95-9.23 2.16-1.91 2.16-1.91 4.34-4.73 2.64-3.23 5.71-5.73 9.03-8.23 1.24-0.955 2.49-1.91 3.73-2.87 0.64-0.491 1.28-0.982 1.94-1.49 2.63-2.04 5.21-4.13 7.79-6.22 5.6-4.53 11.2-8.89 17.2-12.9 1.95-1.3 1.95-1.3 3.31-2.84 1.82-1.73 3.58-2.77 5.81-3.94 0.811-0.428 1.62-0.856 2.46-1.3 0.845-0.438 1.69-0.877 2.56-1.33 0.826-0.438 1.65-0.877 2.5-1.33 5.01-2.62 9.98-4.78 15.3-6.67 3.35-1.38 3.35-1.38 6-3 0.33-0.99 0.66-1.98 1-3 2.04-0.0273 4.08-0.0465 6.12-0.0625 1.14-0.0116 2.27-0.0232 3.45-0.0352 3.43 0.0977 3.43 0.0977 6.57 0.746 3.43 0.422 4.63-0.199 7.55-1.96 4.6-2.51 8.7-3.52 13.9-4.29 2.58-0.347 2.58-0.347 5.45-1.39 8.24-2.75 22-6.02 30-2z" fill="#EB881B"/>
<path transform="translate(6,890)" d="m0 0c2 2 2 2 2.79 4.42 2.1 6.2 5.23 12 8.14 17.8 2.68 5.5 4.89 10.8 6.42 16.7 0.924 2.85 2.77 4.72 4.66 7.02 0.853 2.22 1.54 4.44 2.19 6.72 0.953 2.69 2.32 4.85 3.81 7.28 1.4 2.64 2.73 5.32 4.06 8 0.351 0.699 0.703 1.4 1.06 2.12 1.45 2.9 2.81 5.72 3.93 8.76 0.863 2.46 0.863 2.46 3.94 4.12 0.965 2.05 0.965 2.05 1.94 4.75 2.47 6.21 5.52 12 8.75 17.8 0.782 1.42 0.782 1.42 1.58 2.86 1.06 1.92 2.12 3.84 3.18 5.76 3.96 7.21 7.76 14.5 11.5 21.8 0.857 1.65 0.857 1.65 1.73 3.33 3.27 6.4 3.27 6.4 3.27 8.67 0.99 0.33 1.98 0.66 3 1 1.22 1.42 1.22 1.42 2.42 3.25 0.668 1 0.668 1 1.35 2.02 0.468 0.716 0.937 1.43 1.42 2.17 3.72 5.55 7.53 10.9 11.8 16.1 17 20.9 17 20.9 17 24.5 0.567 0.213 1.13 0.425 1.72 0.645 3.1 1.84 4.65 4.15 6.78 7.04 0.877 1.17 1.76 2.35 2.64 3.52 0.462 0.617 0.924 1.23 1.4 1.87 3 3.95 6.14 7.78 9.26 11.6 2.4 2.98 4.71 5.98 6.91 9.11 2.24 3.1 4.31 4.83 7.29 7.18 2.43 2.59 4.71 5.29 7 8 0.514 0.588 1.03 1.18 1.56 1.78 3.44 3.98 3.44 3.98 3.44 6.22 1.32 0.66 2.64 1.32 4 2v2h2c1 1.67 2 3.33 3 5 2.2 2.31 4.47 4.51 6.81 6.69 1.19 1.31 1.19 1.31 1.19 3.31 0.701 0.227 1.4 0.454 2.12 0.688 3.62 1.65 5.96 3.6 8.88 6.31v2h2v2h2v2h2v2h2v2h2v2h2v2h2v2c0.895 0.373 0.895 0.373 1.81 0.754 2.51 1.43 3.61 2.83 5.25 5.18 2 2.86 2 2.86 4.34 5.43 2.8 2.85 5.03 6.19 7.37 9.42 2.18 3.08 2.18 3.08 5.23 5.21v2c0.557 0.227 1.11 0.454 1.69 0.688 2.96 1.68 4.97 3.85 7.31 6.31l1.81 1.69c1.19 1.31 1.19 1.31 1.19 3.31 0.571 0.245 1.14 0.49 1.73 0.742 7.29 4.04 12.9 12 18.3 18.3 0.583 0.655 1.17 1.31 1.77 1.98 0.552 0.624 1.1 1.25 1.67 1.89 0.494 0.554 0.987 1.11 1.5 1.68 1.07 1.45 1.07 1.45 1.07 3.45h2c5.54 5.84 5.84 12.4 5.94 20.1 0.0288 1.13 0.0577 2.26 0.0874 3.42 0.45 27.5 0.45 27.5-3.02 34.5-0.216 4.56-0.216 4.56 0.625 9 0.481 2.57-0.356 4.3-1.15 6.73-0.853 4.05-0.561 8.15-0.449 12.3-0.0273 2.99-0.0273 2.99-0.502 4.82-0.633 2.61-0.793 5.11-0.955 7.79-2 30.7-2 30.7-7.57 37.4-0.33-0.66-0.66-1.32-1-2-0.99-0.33-1.98-0.66-3-1v-3h-3v-2c-0.99-0.33-1.98-0.66-3-1v-2c-1.98-0.33-3.96-0.66-6-1v-3h-3v-3h-3v-4h-3v-3h-3v-3h-3c-0.33-1.65-0.66-3.3-1-5-0.99-0.33-1.98-0.66-3-1v-3h-3v-3h-3v-3h-3v-3h-3v-3h-3l-1-3c-0.99-0.33-1.98-0.66-3-1v-3h-3v-3h-3v-3h-3v-3h-3v-3h-3l-1-3c-0.66-0.33-1.32-0.66-2-1-0.625-2.56-0.625-2.56-1-5-0.99-0.33-1.98-0.66-3-1v-3h-3v-3h-3v-3h-3v-3h-3v-6h-3v-4h-3v-3h-3c-0.33-1.65-0.66-3.3-1-5-0.99-0.33-1.98-0.66-3-1v-3h-2v-3h-4v-3c-0.99-0.33-1.98-0.66-3-1v-5h-3v-4h-3v-3h-3c-0.33-1.98-0.66-3.96-1-6h-2v-3h-3c-0.33-1.98-0.66-3.96-1-6h-2l-1-3c-0.773-0.712-0.773-0.712-1.56-1.44-1.44-1.56-1.44-1.56-1.44-5.56h-3v-3h-3v-6h-3v-6h-3v-4h-3c-0.124-0.804-0.248-1.61-0.375-2.44-0.206-0.846-0.412-1.69-0.625-2.56-0.66-0.33-1.32-0.66-2-1-0.625-3.06-0.625-3.06-1-6h-2v-3h-3c-0.33-1.98-0.66-3.96-1-6-0.99-0.33-1.98-0.66-3-1v-5h-3v-4h-3v-6h-3v-6h-3v-6h-3c-0.186-1.45-0.186-1.45-0.375-2.94-0.309-1.52-0.309-1.52-0.625-3.06-0.66-0.33-1.32-0.66-2-1-0.625-3.06-0.625-3.06-1-6h-2c-0.33-1.98-0.66-3.96-1-6h-3v-6h-3v-7h-3v-9h-3v-6h-3c-0.124-0.969-0.248-1.94-0.375-2.94-0.206-1.01-0.412-2.02-0.625-3.06-0.66-0.33-1.32-0.66-2-1-0.594-2.65-0.742-5.29-1-8h-2c-0.495-3.46-0.495-3.46-1-7h-2c-0.495-4.45-0.495-4.45-1-9-0.99-0.33-1.98-0.66-3-1v-6h-3v-9h-3c-0.049-0.638-0.098-1.28-0.148-1.93-0.0748-0.826-0.15-1.65-0.227-2.5-0.0696-0.824-0.139-1.65-0.211-2.5-0.205-1.02-0.205-1.02-0.414-2.07-0.66-0.33-1.32-0.66-2-1-0.391-2.06-0.507-4.09-0.656-6.19-0.113-0.598-0.227-1.2-0.344-1.81-0.66-0.33-1.32-0.66-2-1v-6h-3c-0.049-0.638-0.098-1.28-0.148-1.93-0.0748-0.826-0.15-1.65-0.227-2.5-0.0696-0.824-0.139-1.65-0.211-2.5-0.137-0.682-0.273-1.36-0.414-2.07-0.66-0.33-1.32-0.66-2-1-0.414-2.07-0.414-2.07-0.625-4.56-0.0748-0.826-0.15-1.65-0.227-2.5-0.049-0.638-0.098-1.28-0.148-1.93h-2c-0.33-3.96-0.66-7.92-1-12h-2c-1-3.01-1.1-5.04-1.06-8.19 0.00902-0.901 0.018-1.8 0.0273-2.73 0.0116-0.687 0.0232-1.37 0.0352-2.08h-3v-15h-3v-10h-3v-12h-3c-0.33-5.28-0.66-10.6-1-16h-2c-0.33-6.93-0.66-13.9-1-21h-2c-0.912-7.36-1.11-14.6-1-22h-2c-0.33-5.61-0.66-11.2-1-17z" fill="#000102"/>
<path transform="translate(1561,1016)" d="m0 0c0.33 0.99 0.66 1.98 1 3h-2c-0.33 4.95-0.66 9.9-1 15h-3v7h-2c-0.33 2.97-0.66 5.94-1 9h-3v10h-3v9h-3c-0.33 2.97-0.66 5.94-1 9h-2c-0.33 2.31-0.66 4.62-1 7h-2c-0.124 1.3-0.247 2.6-0.375 3.94-0.211 2.21-0.211 2.21-0.625 4.06-0.66 0.33-1.32 0.66-2 1-0.658 3.03-0.658 3.03-1 6h-2c-0.33 2.97-0.66 5.94-1 9h-3v7h-3v6h-3v6h-3v6c-1.49 0.495-1.49 0.495-3 1-0.124 1.3-0.247 2.6-0.375 3.94-0.211 2.21-0.211 2.21-0.625 4.06-0.66 0.33-1.32 0.66-2 1-0.658 3.03-0.658 3.03-1 6h-3v6h-3v6h-3v6h-3v7h-3c-0.33 1.98-0.66 3.96-1 6h-2c-0.124 0.969-0.247 1.94-0.375 2.94-0.206 1.01-0.412 2.02-0.625 3.06-0.66 0.33-1.32 0.66-2 1-0.33 0.99-0.66 1.98-1 3h-2c-0.33 1.98-0.66 3.96-1 6h-3v6h-3v4h-3v5h-3v4h-3v6h-3v3h-3c-0.33 1.98-0.66 3.96-1 6h-2c-0.33 1.98-0.66 3.96-1 6h-3v4h-2c-0.33 1.98-0.66 3.96-1 6h-3v3h-3v6h-3v3h-3c-0.33 1.32-0.66 2.64-1 4h-2c-0.186 1.21-0.186 1.21-0.375 2.44-0.206 0.846-0.412 1.69-0.625 2.56-0.66 0.33-1.32 0.66-2 1-0.33 0.99-0.66 1.98-1 3h-3v6h-3v3h-3v4h-3v3h-3c-0.33 1.65-0.66 3.3-1 5h-2c-0.33 1.32-0.66 2.64-1 4h-2v3h-4v3c-0.66 0.33-1.32 0.66-2 1-0.656 2.53-0.656 2.53-1 5h-3v3h-3v3h-3v4h-3v3h-3v3h-4v3c-2.31 2-2.31 2-5 4-2.38 2.12-2.96 2.87-4 6h-3v5h-3v4h-3v3h-3v3h-4v3c-1.64 1.37-3.31 2.69-5 4-1.35 1.66-2.68 3.32-4 5-0.66 0.33-1.32 0.66-2 1-0.33 0.99-0.66 1.98-1 3h-3v3h-3v3h-4v3h-3v3c-1.65 0.33-3.3 0.66-5 1v2c-0.99 0.33-1.98 0.66-3 1-0.33 0.66-0.66 1.32-1 2h-3v3h-3v4h-3v3h-3v3h-4v3h-5c-0.33 1.32-0.66 2.64-1 4h-2c-0.33 0.99-0.66 1.98-1 3-0.99-1.49-0.99-1.49-2-3-1.09-0.124-2.19-0.247-3.31-0.375-4.46-0.757-5.89-2.15-8.69-5.62v-2c-0.99-0.33-1.98-0.66-3-1-1.36-1.79-1.36-1.79-2.75-4.06-2.52-3.97-5.28-7.35-8.54-10.7-1.94-2.51-3.19-5.07-4.56-7.92-2.18-4.38-4.7-8.57-7.15-12.8-5.81-10-5.81-10-8.1-14.8-1.69-3.44-3.73-6.15-6.34-8.99-0.741-0.821-1.48-1.64-2.25-2.49-2.3-2.19-4.57-3.63-7.32-5.2-2-2-2-2-2.01-4.38 1.4-3.65 3.88-4.8 7.13-6.62 5.72-3.44 10.8-7.24 15.9-11.6 0.61-0.526 1.22-1.05 1.85-1.59 3.59-3.17 6.7-6.53 9.76-10.2 1.87-2.13 3.95-3.81 6.2-5.52 3.38-2.62 6.6-5.3 9.75-8.19 3.66-3.32 7.49-6.04 11.7-8.65 1.9-1.12 1.9-1.12 2.75-3.23h2c1.35-1.32 2.68-2.65 4-4 1.56-1.16 3.14-2.28 4.75-3.38 13.3-8.04 13.3-8.04 22.2-19.6 1.65-1.02 3.32-2.02 5-3 1.12-0.94 2.22-1.9 3.31-2.88 2.34-2.06 4.62-3.75 7.31-5.31 4.44-2.67 8.26-6 12.2-9.38 4.08-3.51 8.26-6.84 12.5-10.1 4.63-3.58 8.84-7.29 12.9-11.5 2.42-2.38 5.06-4.32 7.84-6.25 2.1-1.57 2.1-1.57 4.29-3.88 2.85-2.82 5.9-5.24 9.1-7.64 4.28-3.23 8.48-6.52 12.6-10 0.554-0.461 1.11-0.922 1.68-1.4 7.01-5.95 13.4-12.6 19.8-19.1 13.5-13.6 13.5-13.6 19.8-19 2.68-2.34 5.09-4.9 7.48-7.52 0.505-0.551 1.01-1.1 1.53-1.67 7.89-8.73 14.9-18.1 21.8-27.7 3.16-4.31 6.54-8.43 9.9-12.6 3.61-4.53 7.13-8.95 10-14 7.44-11.7 7.44-11.7 13-13 0.418-1.08 0.418-1.08 0.844-2.18 1.36-3.32 3.17-5.57 5.47-8.32 0.759-0.918 1.52-1.84 2.3-2.78 2.39-2.72 2.39-2.72 4.96-5.05 3.03-3.32 4.38-6.64 5.99-10.8 2.61-6.71 4.76-9.77 11.4-12.9z" fill="#000102"/>
<path transform="translate(1206 463)" d="m0 0c1.84 1.93 3.52 3.81 5.19 5.88 2.19 2.93 2.19 2.93 4.94 4.25 5.3 3.45 7.94 9.67 9.5 15.6 0.276 3.13 0.28 6.23 0.25 9.38 0.00773 0.812 0.0155 1.62 0.0234 2.46-0.0414 12.9-0.0414 12.9-4.27 17.2-0.295 1.06-0.59 2.13-0.895 3.22-2.83 9.66-10.3 21-18.8 26.5-0.763 0.413-1.53 0.825-2.31 1.25-0.66 0.701-1.32 1.4-2 2.12-4.12 3.87-9.67 2.97-15 2.88v2c-2 0.0425-4 0.0408-6 0-0.33-0.33-0.66-0.66-1-1-1.95-0.0888-3.91-0.107-5.86-0.0977-1.26 0.0033-2.51 0.00661-3.8 0.01-0.676 0.00412-1.35 0.00824-2.05 0.0125-2.12 0.0127-4.23 0.0193-6.35 0.0241-5.26 0.0134-10.5 0.0374-15.8 0.0614-4.43 0.0198-8.87 0.0354-13.3 0.0456-2.07 0.00644-4.15 0.019-6.22 0.0317-6.33 0.0164-12.4-0.156-18.6-1.09-1.57-0.0697-3.15-0.109-4.72-0.0977-0.786 0.00322-1.57 0.00645-2.38 0.00977-0.791 0.00838-1.58 0.0168-2.4 0.0254-0.822 0.00451-1.64 0.00902-2.49 0.0137-2 0.0116-4.01 0.0296-6.01 0.0488v3c-5.94 0.495-5.94 0.495-12 1 0.33 1.32 0.66 2.64 1 4-6.82 4.2-12.8 5.55-20.7 6.43-11.5 1.4-23.3 3.63-32.4 11.1-2.44 1.92-4.96 2.64-7.91 3.5-1.63 1.46-1.63 1.46-3 3-3.28 2.03-6.05 2.38-9.88 2.5-1.01 0.0516-2.02 0.103-3.05 0.156-4.33-0.926-6.7-3.04-9.07-6.66-1.36-3.47-2.11-6.97-2.81-10.6-0.31-1.47-0.31-1.47-0.626-2.96-1.24-6.09-2.15-12-2.32-18.3-0.105-2.44-0.105-2.44-2.24-5.14-1.05-8.61 0.696-16.7 3-25 0.182-0.788 0.364-1.58 0.551-2.39 1.49-5.32 4.38-7.59 9.07-10.4 7.42-3.89 14-4.84 22.4-5.25v-2c-0.99-0.495-0.99-0.495-2-1 1.13-0.182 2.26-0.364 3.43-0.551 1.48-0.253 2.96-0.507 4.45-0.762 1.12-0.177 1.12-0.177 2.26-0.357 1.97-0.347 3.92-0.831 5.86-1.33 0.66-0.99 1.32-1.98 2-3 2.79-0.879 2.79-0.879 6.19-1.56 3.44-0.709 6.79-1.43 10.1-2.46 4.36-1.17 8.62-1.66 13.1-2.11 0.827-0.0864 1.65-0.173 2.51-0.262 2.02-0.21 4.04-0.412 6.06-0.613v-4c0.614-0.0553 1.23-0.111 1.86-0.168 2.84-0.256 5.68-0.513 8.51-0.77 0.966-0.087 1.93-0.174 2.93-0.264 6.24-0.565 12.5-1.16 18.7-1.8 0.33-1.32 0.66-2.64 1-4 9.43-1.46 18.4-2.29 28-2v-2c2.73-0.364 5.46-0.716 8.19-1.06 1.15-0.156 1.15-0.156 2.33-0.314 4.08-0.507 7.46-0.775 11.5 0.377 0.433-0.959 0.433-0.959 0.875-1.94 1.12-2.06 1.12-2.06 3.12-3.06 1.89-0.155 3.79-0.275 5.69-0.375 5.03-0.375 10.5-0.844 14.3-4.62 21.7-2.8 21.7-2.8 29.4 3.25z" fill="#000102"/>
<path transform="translate(265 543)" d="m0 0c0.793 0.00193 1.59 0.00387 2.4 0.00586 0.824 0.0122 1.65 0.0245 2.5 0.0371 0.828 6.45e-4 1.66 0.00129 2.51 0.00195 6.15 0.045 6.15 0.045 8.43 1.19 2.54 0.32 5.08 0.606 7.62 0.875 5.93 0.678 10.9 1.76 16.4 4.12 1.47 0.4 2.95 0.775 4.44 1.12 3.56 0.875 3.56 0.875 4.56 1.88 1.72 0.259 3.44 0.513 5.17 0.749 11.1 1.58 20.7 5.57 30.8 10.3v2c0.639 0.268 1.28 0.536 1.94 0.812 2.06 1.19 2.06 1.19 3.06 4.19 0.643-0.0348 1.29-0.0696 1.95-0.105 16-0.478 29.4 5.48 43.1 13 5.4 2.92 10.9 5.24 16.6 7.5 5.88 2.35 11.4 5.12 17.1 8.04 3.03 1.45 5.95 2.45 9.16 3.42 6.04 2.12 9 5.6 12.1 11.1 4.21 9.27 8.15 19.3 5.28 29.6-2.96 7.85-6.66 13.3-13.3 18.4-0.33 0.99-0.66 1.98-1 3-5.17 3.54-10.9 4.26-17 4-8.31-1.82-13.5-6.43-18.6-13.1-4.17-5.31-8.06-7.39-14.4-9.72-3.93-1.56-7.36-3.64-10.9-5.89-3.66-2.26-6.64-3.54-10.9-4.21-7.37-1.39-13.1-4.88-19.3-8.98-11.2-6.56-27-4.37-39.6-4.5-1.98-0.0232-3.95-0.0465-5.93-0.0702-4.11-0.0481-8.23-0.0931-12.3-0.136-5.28-0.0552-10.6-0.119-15.9-0.185-4.07-0.0499-8.13-0.0951-12.2-0.139-1.95-0.0216-3.9-0.0448-5.85-0.0695-2.71-0.0337-5.42-0.061-8.13-0.0865-0.81-0.0114-1.62-0.0227-2.45-0.0345-1.88-0.0143-3.76 0.0231-5.64 0.0721-0.33 0.33-0.66 0.66-1 1-2.06-0.438-2.06-0.438-4-1 0.33-0.33 0.66-0.66 1-1-0.784-0.289-1.57-0.577-2.38-0.875-2.62-1.12-2.62-1.12-4.62-3.12-1.67-0.371-1.67-0.371-3.38-0.75-2.96-1.22-3.58-2.15-4.97-5.1-2.42-7.83-4.04-16-2.65-24.1 2.31-3 2.31-3 5-5 2.2-3.09 3.46-6.22 4.75-9.75 2.11-5.45 5.15-10.1 9.25-14.2h2c0.342-0.862 0.342-0.862 0.691-1.74 1.66-2.86 3.64-4.37 6.25-6.38 0.875-0.683 1.75-1.37 2.65-2.07 5.42-4.06 5.42-4.06 9.57-4.04z" fill="#000102"/>
<path transform="translate(156,371)" d="m0 0c1.69 2 1.69 2 3 4-2.31 2.67-4.26 3.63-7.62 4.62-2.95 0.735-2.95 0.735-5.38 2.38-1.67 0.0406-3.33 0.0427-5 0v2c-1.65 0.66-3.3 1.32-5 2v-4c0.99-0.66 1.98-1.32 3-2v-3c1.39-0.821 2.79-1.63 4.19-2.44 0.777-0.452 1.55-0.905 2.36-1.37 3.52-1.71 6.56-2.19 10.5-2.19z" fill="#D07818"/>
<path transform="translate(1069,384)" d="m0 0c0.33 1.32 0.66 2.64 1 4-0.846 0.182-1.69 0.364-2.56 0.551-7.6 1.66-7.6 1.66-14.9 4.2-3.51 1.25-5.03 1.44-8.5 0.25 1.5-2 1.5-2 4-4 2.76-0.358 5.2-0.187 8 0 0.33-1.32 0.66-2.64 1-4 4.05-0.982 7.84-1.08 12-1z" fill="#ED922D"/>
<path transform="translate(340 378)" d="m0 0c4.53 1.7 9.02 3.49 13.5 5.31v2c0.66 0.33 1.32 0.66 2 1-0.33 0.99-0.66 1.98-1 3-6.75-0.3-12.6-2.99-18-7-0.82-2.2-0.82-2.2-1-4 2-1 2-1 4.5-0.312z" fill="#EC891C"/>
<path transform="translate(1086,553)" d="m0 0h18v3c-3.19 1.59-6.63 1.1-10.1 1.06-0.754-0.00451-1.51-0.00902-2.29-0.0137-1.86-0.0118-3.73-0.0297-5.59-0.0488v-4z" fill="#EC891C"/>
<path transform="translate(272,1263)" d="m0 0h2v31c-0.66-0.33-1.32-0.66-2-1-0.414-2.29-0.414-2.29-0.625-5.06-0.0748-0.919-0.15-1.84-0.227-2.79-0.049-0.71-0.098-1.42-0.148-2.15h2c-0.33-0.66-0.66-1.32-1-2-0.259-2.86-0.466-5.7-0.625-8.56-0.0516-0.793-0.103-1.59-0.156-2.4-0.117-2.01-0.173-4.02-0.219-6.03 0.33-0.33 0.66-0.66 1-1z" fill="#EC8A1F"/>
<path transform="translate(1069,384)" d="m0 0c0.33 1.32 0.66 2.64 1 4-1.42 0.197-2.83 0.382-4.25 0.562-0.789 0.104-1.58 0.209-2.39 0.316-2.36 0.121-4.11-0.183-6.36-0.879v-3c4.05-0.982 7.84-1.08 12-1z" fill="#DE811A"/>
<path transform="translate(275,1324)" d="m0 0c-0.33 5.61-0.66 11.2-1 17-0.99-0.33-1.98-0.66-3-1-0.197-11.3-0.197-11.3 1-15 2-1 2-1 3-1z" fill="#EC8B20"/>
<path transform="translate(277,1261)" d="m0 0c0.124 1.09 0.248 2.19 0.375 3.31 0.38 3.76 0.38 3.76 2.62 6.69h-2c-0.33 3.96-0.66 7.92-1 12h-1c-0.66-6.93-1.32-13.9-2-21 2-1 2-1 3-1z" fill="#EC891C"/>
<path transform="translate(156,371)" d="m0 0c1.69 2 1.69 2 3 4-1.12 1.5-1.12 1.5-3 3-3.19 0.188-3.19 0.188-6 0 0.66-0.33 1.32-0.66 2-1v-2c-1.65-0.33-3.3-0.66-5-1 3.27-2.18 5.08-3 9-3z" fill="#ED912D"/>
<path transform="translate(145,1125)" d="m0 0c2.31 0.188 2.31 0.188 5 1 1.81 2.56 1.81 2.56 3 5-1.65 0.33-3.3 0.66-5 1-0.33-1.32-0.66-2.64-1-4h-2v-3z" fill="#B96C16"/>
<path transform="translate(273,1310)" d="m0 0c0.66 0.33 1.32 0.66 2 1v10h-2c-1.49-2.99-1.12-5.71-1-9 0.33-0.66 0.66-1.32 1-2z" fill="#ED912C"/>
<path transform="translate(1080,557)" d="m0 0c0.33 0.66 0.66 1.32 1 2h2v2h-9v-3c1.98-0.33 3.96-0.66 6-1z" fill="#EC891C"/>
<path transform="translate(694,1589)" d="m0 0c3 1 3 1 3 1z" fill="#000102"/>
<path transform="translate(1172,1499)" d="m0 0c3 1 3 1 3 1z" fill="#000102"/>
<path transform="translate(892,1589)" d="m0 0 2 1z" fill="#000102"/>
<path transform="translate(1085,1539)" d="m0 0 2 1z" fill="#000102"/>
<path transform="translate(503,1539)" d="m0 0 2 1z" fill="#000102"/>
<path transform="translate(488,1533)" d="m0 0 2 1z" fill="#000102"/>
</svg>
